<svg width="137" height="130" viewBox="0 0 137 130" fill="none" xmlns="http://www.w3.org/2000/svg">
<path d="M88.4275 0.0248363C88.4275 0.0248363 88.259 0.0248363 87.9781 0.0248363C87.6972 0.0248363 87.2477 -0.0310454 86.6859 0.0248363C85.5623 0.080718 83.877 0.304245 81.9107 1.14247C79.9444 1.9807 77.641 3.43362 75.8432 5.83653C74.9444 7.06593 74.1579 8.51886 73.7084 10.1394C73.259 11.8159 73.0904 13.6041 73.3152 15.5041C73.5399 17.404 74.1579 19.3599 75.1691 21.1481C75.6747 22.0422 76.2927 22.8805 77.0792 23.6628C77.8095 24.4451 78.7084 25.1716 79.6635 25.6745C80.6185 26.1775 81.7421 26.5128 82.9219 26.5128C84.0455 26.4569 85.2253 26.0657 86.068 25.2275C86.9107 24.3893 87.3039 23.2157 87.3039 21.9863C87.3039 20.7569 86.9107 19.5834 86.1803 18.5776C84.7197 16.5658 82.3601 15.1688 79.832 14.4423C77.3039 13.7159 74.4949 13.7159 71.8545 14.3306C70.5062 14.6658 69.214 15.1688 68.0343 15.8394C66.7983 16.5099 65.7309 17.404 64.7197 18.4099C64.4949 18.6893 64.214 18.9129 64.0455 19.1923L63.4275 20.0864C63.0343 20.7011 62.6972 21.3158 62.4163 21.9305C61.7983 23.2157 61.405 24.6128 61.1803 26.0657C60.7871 28.9157 61.1241 31.8774 62.3039 34.448C63.4275 37.0185 65.3376 39.2538 67.7534 40.595C68.9331 41.2655 70.2815 41.6567 71.5736 41.7685C72.9219 41.8244 74.214 41.4891 75.3376 40.8744C76.4612 40.2038 77.4163 39.2538 77.9219 38.0803C78.4275 36.9068 78.4275 35.5656 77.9781 34.448C77.5848 33.2744 76.7983 32.2686 75.8432 31.4862C74.9444 30.7039 73.877 30.0892 72.7534 29.698C70.5062 28.9716 68.0904 29.0274 65.8994 29.5863C63.7084 30.1451 61.7983 31.2627 60.2815 32.7156C58.7646 34.1686 57.6972 35.9009 57.0792 37.6891C55.7871 41.2655 56.1241 44.9537 57.2477 47.7478C58.3713 50.5419 60.2253 52.5536 61.8545 53.8948C63.5399 55.236 65.0567 55.9624 66.1242 56.3536C66.6298 56.5771 67.0792 56.6889 67.3601 56.8006C67.641 56.9124 67.7534 56.9124 67.7534 56.9124C67.7534 56.9124 67.5848 56.8565 67.3039 56.8006C67.023 56.7448 66.6298 56.5771 66.068 56.4095C65.0006 56.0183 63.4837 55.2918 61.7421 54.0066C60.0567 52.6654 58.2028 50.6537 57.023 47.8596C55.8994 45.0655 55.5062 41.3214 56.8545 37.6891C57.4725 35.9009 58.5961 34.1127 60.1129 32.6597C61.6298 31.2068 63.5961 30.0892 65.7871 29.4745C67.9781 28.8598 70.45 28.8039 72.7534 29.5863C73.877 29.9774 75.0006 30.5921 75.9556 31.4304C76.9107 32.2686 77.6972 33.2744 78.1466 34.5038C78.5961 35.7332 78.5961 37.1303 78.0904 38.3597C77.5848 39.5891 76.5736 40.595 75.3938 41.2655C74.214 41.9361 72.8095 42.2714 71.4612 42.2155C70.0567 42.1596 68.7084 41.7126 67.4725 41.042C65.0006 39.7008 63.0904 37.4097 61.9107 34.7833C60.7309 32.1568 60.3938 29.1392 60.7309 26.2334C60.9556 24.7804 61.3489 23.3834 61.9668 22.0422C62.2477 21.3716 62.641 20.7569 63.0343 20.1422L63.7084 19.2481C63.9331 18.9687 64.214 18.6893 64.4388 18.4099C65.45 17.3482 66.5736 16.4541 67.8095 15.7835C69.0455 15.1129 70.3938 14.61 71.7421 14.2188C74.4388 13.5482 77.3039 13.6041 79.8882 14.3306C82.4725 15.1129 84.832 16.4541 86.3489 18.5776C87.0792 19.6393 87.5286 20.8687 87.5286 22.154C87.5286 23.3834 87.0792 24.6687 86.1803 25.5628C85.2815 26.4569 84.0455 26.8481 82.8657 26.9039C81.6859 26.9598 80.5062 26.6245 79.4949 26.0657C78.4837 25.5069 77.5848 24.7804 76.8545 23.9981C76.068 23.2157 75.45 22.3216 74.9444 21.4275C73.877 19.5834 73.3152 17.6276 73.0343 15.7276C72.8095 13.8276 72.9781 11.9276 73.4275 10.2512C73.877 8.57474 74.6635 7.12181 75.6185 5.89242C77.4725 3.43362 79.7758 1.9807 81.7983 1.19835C83.8208 0.360127 85.5062 0.192481 86.6298 0.1366C87.1916 0.080718 87.641 0.1366 87.9219 0.1366C88.259 0.0248363 88.4275 0.0248363 88.4275 0.0248363Z" fill="#828282"/>
<path d="M119.902 53.7124H20.433V130H119.902V53.7124Z" fill="#E0E0E0"/>
<path d="M20.433 53.7124L38.8084 70.7201H136.574L119.902 53.7124H20.433Z" fill="#E0E0E0"/>
<path d="M20.433 53.7124C22.2066 53.7124 63.2854 53.6419 119.902 53.5007H119.973L120.044 53.5713C125.365 59.0053 130.899 64.651 136.574 70.4378C136.645 70.5084 136.716 70.579 136.716 70.579L137 70.8613H136.574C96.4889 70.8613 60.8731 70.7907 38.8084 70.7907H38.7375C27.2439 60.0638 21.0005 54.277 20.433 53.7124C21.0715 54.277 27.3149 59.9933 38.8794 70.6495H38.8084C60.9441 70.6495 96.4889 70.579 136.574 70.579L136.432 70.8613C136.361 70.7907 136.291 70.7201 136.291 70.7201C130.615 64.9333 125.081 59.2876 119.76 53.8536L119.902 53.9241C63.2854 53.783 22.2066 53.7124 20.433 53.7124Z" fill="#828282"/>
<path d="M50.3019 88.9275C49.2377 88.9275 48.3154 89.8449 48.2444 90.9035C48.2444 91.9621 49.1668 92.9501 50.231 92.9501C51.2952 93.0206 52.2885 92.1032 52.3594 91.0446C52.4304 89.9861 51.508 88.9981 50.4438 88.9275" fill="#828282"/>
<path d="M73.7856 88.9275C72.7214 88.9275 71.7991 89.8449 71.7281 90.9035C71.7281 91.9621 72.6505 92.9501 73.7147 92.9501C74.7789 93.0206 75.7722 92.1032 75.8431 91.0446C75.9141 89.9861 74.9917 88.9981 73.9275 88.9275" fill="#828282"/>
<path d="M73.9275 107.135C73.8566 107.205 73.6437 105.229 71.941 102.759C71.0896 101.56 69.8835 100.219 68.1808 99.1603C66.549 98.1018 64.4205 97.3255 62.1502 97.2549C59.8799 97.1843 57.7514 97.8901 56.0487 98.8075C54.346 99.7955 52.998 100.995 52.0756 102.195C50.231 104.594 49.9472 106.5 49.8763 106.5C49.8763 106.5 49.8763 106.359 49.9472 106.147C50.0181 105.935 50.0891 105.582 50.231 105.229C50.5148 104.453 51.0114 103.324 51.9337 102.054C52.8561 100.854 54.1331 99.5132 55.9068 98.5252C57.6805 97.5372 59.8799 96.8315 62.2212 96.9021C64.5624 96.9726 66.7618 97.7489 68.3936 98.8781C70.0964 100.007 71.3734 101.348 72.1538 102.618C73.0052 103.889 73.4309 105.018 73.6437 105.865C73.7856 106.288 73.7856 106.57 73.8566 106.782C73.9275 107.064 73.9275 107.135 73.9275 107.135Z" fill="#828282"/>
<path opacity="0.5" d="M20.6458 54.5593L38.2408 76.7187H119.902V70.7201H38.8084L20.6458 54.5593Z" fill="#828282"/>
<path d="M100.249 129.859C100.178 129.859 100.036 116.591 100.036 100.219C100.036 83.8464 100.107 70.579 100.249 70.579C100.32 70.579 100.462 83.8464 100.462 100.219C100.462 116.591 100.391 129.859 100.249 129.859Z" fill="#828282"/>
<path d="M115.929 112.569H107.131V122.449H115.929V112.569Z" fill="#E0E0E0"/>
<path d="M20.4329 53.7124L0 70.7201H20.4329V53.7124Z" fill="#E0E0E0"/>
<g opacity="0.4">
<path opacity="0.4" d="M20.4329 53.7124L0 70.7201H20.4329V53.7124Z" fill="#828282"/>
</g>
</svg>
