<svg width="14" height="18" viewBox="0 0 14 18" fill="none" xmlns="http://www.w3.org/2000/svg">
    <path d="M0.272461 9.90527L5.8623 17.5518C6.08203 17.833 6.40723 18 6.75 18C7.10156 18 7.42676 17.833 7.6377 17.5518L13.2275 9.90527C13.4121 9.67676 13.5 9.39551 13.5 9.10547C13.5 8.92969 13.4648 8.74512 13.3945 8.58691C13.2012 8.13867 12.7793 7.875 12.3311 7.875H8.98242L8.99121 2.25C8.99121 1.01074 7.98926 0 6.75 0C5.51074 0 4.50879 1.01074 4.50879 2.25L4.5 7.875H1.16016C0.703125 7.875 0.298828 8.13867 0.114258 8.58691C0.0351562 8.74512 0 8.92969 0 9.10547C0 9.39551 0.0966797 9.67676 0.272461 9.90527Z" fill="black" />
</svg>
