<svg width="129" height="25" viewBox="0 0 129 25" fill="none" xmlns="http://www.w3.org/2000/svg">
    <path d="M0.684 7.02C0.516 6.756 0.36 6.396 0.216 5.94C0.072 5.484 0 5.004 0 4.5C0 3.564 0.204 2.892 0.612 2.484C1.044 2.076 1.596 1.872 2.268 1.872H17.964C18.132 2.136 18.288 2.496 18.432 2.952C18.576 3.408 18.648 3.888 18.648 4.392C18.648 5.328 18.432 6 18 6.408C17.592 6.816 17.052 7.02 16.38 7.02H12.384V23.652C12.12 23.724 11.7 23.796 11.124 23.868C10.572 23.94 10.02 23.976 9.468 23.976C8.916 23.976 8.424 23.928 7.992 23.832C7.584 23.76 7.236 23.616 6.948 23.4C6.66 23.184 6.444 22.884 6.3 22.5C6.156 22.116 6.084 21.612 6.084 20.988V7.02H0.684Z" fill="#EB5468" />
    <path d="M39.0479 23.76C38.8079 23.832 38.4239 23.904 37.8959 23.976C37.3919 24.048 36.8639 24.084 36.3119 24.084C35.7839 24.084 35.3039 24.048 34.8719 23.976C34.4639 23.904 34.1159 23.76 33.8279 23.544C33.5399 23.328 33.3119 23.04 33.1439 22.68C32.9999 22.296 32.9279 21.804 32.9279 21.204V13.212C32.9279 12.228 32.6759 11.544 32.1719 11.16C31.6919 10.752 31.0919 10.548 30.3719 10.548C29.8919 10.548 29.4359 10.608 29.0039 10.728C28.5719 10.848 28.2239 10.992 27.9599 11.16V23.76C27.7199 23.832 27.3359 23.904 26.8079 23.976C26.3039 24.048 25.7759 24.084 25.2239 24.084C24.6959 24.084 24.2159 24.048 23.7839 23.976C23.3759 23.904 23.0279 23.76 22.7399 23.544C22.4519 23.328 22.2239 23.04 22.0559 22.68C21.9119 22.296 21.8399 21.804 21.8399 21.204V0.324C22.1039 0.276 22.4879 0.215999 22.9919 0.144C23.5199 0.0479999 24.0479 0 24.5759 0C25.1039 0 25.5719 0.0359998 25.9799 0.107999C26.4119 0.179999 26.7719 0.324 27.0599 0.54C27.3479 0.756 27.5639 1.056 27.7079 1.44C27.8759 1.8 27.9599 2.28 27.9599 2.88V6.408C28.2719 6.288 28.7399 6.156 29.3639 6.012C30.0119 5.844 30.7199 5.76 31.4879 5.76C33.8639 5.76 35.7119 6.36 37.0319 7.56C38.3759 8.736 39.0479 10.5 39.0479 12.852V23.76Z" fill="#EB5468" />
    <path d="M52.6185 24.372C51.2025 24.372 49.8825 24.18 48.6585 23.796C47.4585 23.388 46.4025 22.788 45.4905 21.996C44.6025 21.204 43.8945 20.208 43.3665 19.008C42.8625 17.808 42.6105 16.404 42.6105 14.796C42.6105 13.212 42.8625 11.856 43.3665 10.728C43.8945 9.576 44.5785 8.64 45.4185 7.92C46.2585 7.176 47.2185 6.636 48.2985 6.3C49.3785 5.94 50.4825 5.76 51.6105 5.76C52.8825 5.76 54.0345 5.952 55.0665 6.336C56.1225 6.72 57.0225 7.248 57.7665 7.92C58.5345 8.592 59.1225 9.396 59.5305 10.332C59.9625 11.268 60.1785 12.288 60.1785 13.392C60.1785 14.208 59.9505 14.832 59.4945 15.264C59.0385 15.696 58.4025 15.972 57.5865 16.092L48.6945 17.424C48.9585 18.216 49.4985 18.816 50.3145 19.224C51.1305 19.608 52.0665 19.8 53.1225 19.8C54.1065 19.8 55.0305 19.68 55.8945 19.44C56.7825 19.176 57.5025 18.876 58.0545 18.54C58.4385 18.78 58.7625 19.116 59.0265 19.548C59.2905 19.98 59.4225 20.436 59.4225 20.916C59.4225 21.996 58.9185 22.8 57.9105 23.328C57.1425 23.736 56.2785 24.012 55.3185 24.156C54.3585 24.3 53.4585 24.372 52.6185 24.372ZM51.6105 10.224C51.0345 10.224 50.5305 10.32 50.0985 10.512C49.6905 10.704 49.3545 10.956 49.0905 11.268C48.8265 11.556 48.6225 11.892 48.4785 12.276C48.3585 12.636 48.2865 13.008 48.2625 13.392L54.4185 12.384C54.3465 11.904 54.0825 11.424 53.6265 10.944C53.1705 10.464 52.4985 10.224 51.6105 10.224Z" fill="#EB5468" />
    <path d="M78.1433 16.74V23.652C77.8793 23.724 77.4593 23.796 76.8833 23.868C76.3313 23.94 75.7794 23.976 75.2273 23.976C74.6753 23.976 74.1833 23.928 73.7513 23.832C73.3433 23.76 72.9953 23.616 72.7073 23.4C72.4433 23.184 72.2393 22.884 72.0953 22.5C71.9513 22.116 71.8793 21.612 71.8793 20.988V4.032C71.8793 3.528 72.0113 3.144 72.2753 2.88C72.5633 2.592 72.9473 2.364 73.4273 2.196C74.2433 1.908 75.1913 1.704 76.2713 1.584C77.3513 1.44 78.5033 1.368 79.7273 1.368C83.0394 1.368 85.5353 2.064 87.2153 3.456C88.8953 4.848 89.7353 6.732 89.7353 9.108C89.7353 10.596 89.3513 11.868 88.5833 12.924C87.8153 13.98 86.9033 14.796 85.8473 15.372C86.7113 16.548 87.5633 17.652 88.4033 18.684C89.2433 19.716 89.9033 20.652 90.3833 21.492C90.1433 22.332 89.6993 22.98 89.0513 23.436C88.4273 23.868 87.7193 24.084 86.9273 24.084C86.3993 24.084 85.9434 24.024 85.5593 23.904C85.1753 23.784 84.8393 23.616 84.5513 23.4C84.2633 23.184 83.9993 22.92 83.7593 22.608C83.5193 22.296 83.2914 21.96 83.0753 21.6L80.0513 16.74H78.1433ZM80.4113 11.952C81.3233 11.952 82.0433 11.724 82.5713 11.268C83.0993 10.788 83.3633 10.092 83.3633 9.18C83.3633 8.268 83.0633 7.584 82.4633 7.128C81.8873 6.648 80.9633 6.408 79.6913 6.408C79.3313 6.408 79.0434 6.42 78.8273 6.444C78.6113 6.468 78.3713 6.504 78.1073 6.552V11.952H80.4113Z" fill="#EB5468" />
    <path d="M102.613 24.372C101.197 24.372 99.8775 24.18 98.6535 23.796C97.4535 23.388 96.3975 22.788 95.4855 21.996C94.5975 21.204 93.8895 20.208 93.3615 19.008C92.8575 17.808 92.6055 16.404 92.6055 14.796C92.6055 13.212 92.8575 11.856 93.3615 10.728C93.8895 9.576 94.5735 8.64 95.4135 7.92C96.2535 7.176 97.2135 6.636 98.2935 6.3C99.3735 5.94 100.477 5.76 101.605 5.76C102.877 5.76 104.029 5.952 105.061 6.336C106.117 6.72 107.017 7.248 107.761 7.92C108.529 8.592 109.118 9.396 109.525 10.332C109.957 11.268 110.174 12.288 110.174 13.392C110.174 14.208 109.945 14.832 109.489 15.264C109.033 15.696 108.397 15.972 107.581 16.092L98.6895 17.424C98.9535 18.216 99.4935 18.816 100.309 19.224C101.125 19.608 102.061 19.8 103.117 19.8C104.101 19.8 105.025 19.68 105.889 19.44C106.777 19.176 107.497 18.876 108.049 18.54C108.433 18.78 108.757 19.116 109.021 19.548C109.285 19.98 109.417 20.436 109.417 20.916C109.417 21.996 108.913 22.8 107.905 23.328C107.137 23.736 106.273 24.012 105.313 24.156C104.353 24.3 103.453 24.372 102.613 24.372ZM101.605 10.224C101.029 10.224 100.525 10.32 100.093 10.512C99.6855 10.704 99.3495 10.956 99.0855 11.268C98.8215 11.556 98.6175 11.892 98.4735 12.276C98.3535 12.636 98.2815 13.008 98.2575 13.392L104.413 12.384C104.341 11.904 104.077 11.424 103.621 10.944C103.165 10.464 102.493 10.224 101.605 10.224Z" fill="#EB5468" />
    <path d="M123.523 10.584C122.923 10.584 122.347 10.68 121.795 10.872C121.267 11.064 120.799 11.352 120.391 11.736C120.007 12.096 119.695 12.552 119.455 13.104C119.215 13.656 119.095 14.304 119.095 15.048C119.095 16.536 119.515 17.652 120.355 18.396C121.219 19.14 122.263 19.512 123.487 19.512C124.207 19.512 124.831 19.428 125.359 19.26C125.887 19.092 126.355 18.912 126.763 18.72C127.243 19.056 127.603 19.428 127.843 19.836C128.083 20.22 128.203 20.688 128.203 21.24C128.203 22.224 127.735 22.992 126.799 23.544C125.863 24.072 124.567 24.336 122.911 24.336C121.399 24.336 120.031 24.12 118.807 23.688C117.583 23.232 116.527 22.608 115.639 21.816C114.775 21 114.103 20.028 113.623 18.9C113.143 17.772 112.903 16.524 112.903 15.156C112.903 13.572 113.155 12.192 113.659 11.016C114.187 9.816 114.895 8.832 115.783 8.064C116.671 7.296 117.691 6.72 118.843 6.336C120.019 5.952 121.255 5.76 122.551 5.76C124.279 5.76 125.611 6.072 126.547 6.696C127.483 7.32 127.951 8.124 127.951 9.108C127.951 9.564 127.843 9.996 127.627 10.404C127.411 10.788 127.159 11.124 126.871 11.412C126.463 11.22 125.971 11.04 125.395 10.872C124.819 10.68 124.195 10.584 123.523 10.584Z" fill="#EB5468" />
</svg>
