<svg width="21" height="21" viewBox="0 0 21 21" fill="none" xmlns="http://www.w3.org/2000/svg">
    <path d="M20.1729 18.7383L18.7383 20.1729L13.3936 14.8281C11.8955 15.9961 10.1943 16.5801 8.29004 16.5801C7.18978 16.5801 6.13184 16.3727 5.11621 15.958C4.10905 15.5348 3.21191 14.9339 2.4248 14.1553C1.64616 13.3766 1.04525 12.4837 0.62207 11.4766C0.207357 10.4609 0 9.39876 0 8.29004C0 7.18131 0.207357 6.12337 0.62207 5.11621C1.04525 4.10059 1.64616 3.20345 2.4248 2.4248C3.21191 1.64616 4.10905 1.04948 5.11621 0.634766C6.13184 0.211589 7.18978 0 8.29004 0C9.39876 0 10.4567 0.211589 11.4639 0.634766C12.4795 1.04948 13.3766 1.64616 14.1553 2.4248C14.9424 3.20345 15.5433 4.10059 15.958 5.11621C16.3812 6.12337 16.5928 7.18131 16.5928 8.29004C16.5928 10.1859 16.0046 11.887 14.8281 13.3936L20.1729 18.7383ZM3.84668 12.7207C5.07389 13.9479 6.55501 14.5615 8.29004 14.5615C10.0251 14.5615 11.5062 13.9479 12.7334 12.7207C13.9521 11.502 14.5615 10.0251 14.5615 8.29004C14.5615 6.56348 13.9521 5.08236 12.7334 3.84668C11.4977 2.62793 10.0166 2.01855 8.29004 2.01855C6.55501 2.01855 5.07812 2.62793 3.85938 3.84668C2.63216 5.07389 2.01855 6.55501 2.01855 8.29004C2.01855 10.0251 2.62793 11.502 3.84668 12.7207Z" fill="#000008" fill-opacity="0.26" />
</svg>
