<svg width="24" height="24" viewBox="0 0 24 24" fill="none" xmlns="http://www.w3.org/2000/svg">
<path opacity="0.4" fill-rule="evenodd" clip-rule="evenodd" d="M12 21C16.9706 21 21 16.9706 21 12C21 7.02944 16.9706 3 12 3C7.02944 3 3 7.02944 3 12C3 16.9706 7.02944 21 12 21ZM12 22C17.5228 22 22 17.5228 22 12C22 6.47715 17.5228 2 12 2C6.47715 2 2 6.47715 2 12C2 17.5228 6.47715 22 12 22Z" fill="#6FCF97"/>
<path d="M10.8134 15.2479C10.5894 15.2479 10.3654 15.1629 10.1944 14.9919L7.82144 12.6189C7.47944 12.2769 7.47944 11.7229 7.82144 11.3819C8.16344 11.0399 8.71644 11.0389 9.05844 11.3809L10.8134 13.1359L14.9414 9.0079C15.2834 8.6659 15.8364 8.6659 16.1784 9.0079C16.5204 9.3499 16.5204 9.9039 16.1784 10.2459L11.4324 14.9919C11.2614 15.1629 11.0374 15.2479 10.8134 15.2479Z" fill="#6FCF97"/>
</svg>
